<mxfile host="app.diagrams.net" modified="2024-03-15T15:19:45.588Z" agent="Mozilla/5.0 (Windows NT 10.0; Win64; x64) AppleWebKit/537.36 (KHTML, like Gecko) Chrome/122.0.0.0 Safari/537.36" version="24.0.7" etag="XwkW2NyPpyugYksuiNor" type="github">
  <diagram name="Page-1" id="ilODQ9TYUqpTPgcu6DEt">
    <mxGraphModel>
      <root>
        <mxCell id="0" />
        <mxCell id="1" parent="0" />
      </root>
    </mxGraphModel>
  </diagram>
</mxfile>
